<?xml version="1.0" encoding="UTF-8"?>
<svg width="16" height="16" viewBox="0 0 16 16" xmlns="http://www.w3.org/2000/svg">
  <rect width="14" height="16" x="1" y="0" fill="#4CAF50" rx="1"/>
  <path fill="#388E3C" d="M15 15H1v-1h14v1Z"/>
  <path fill="#2E7D32" d="M15 14H1V1a1 1 0 0 1 1-1h12a1 1 0 0 1 1 1v13Z"/>
  <path fill="#1B5E20" d="M15 1a1 1 0 0 0-1-1H2a1 1 0 0 0-1 1v13h14V1Z"/>
  <path fill="#E8F5E9" d="M3 2h2v2H3zm4 0h2v2H7zm4 0h2v2h-2zM3 6h2v2H3zm4 0h2v2H7zm4 0h2v2h-2zM3 10h2v2H3zm4 0h2v2H7zm4 0h2v2h-2z"/>
</svg>